<?xml version="1.0" ?><svg id="Layer_1" style="enable-background:new 0 0 750 750;" version="1.1" viewBox="0 0 750 750" xml:space="preserve" xmlns="http://www.w3.org/2000/svg" xmlns:xlink="http://www.w3.org/1999/xlink"><style type="text/css">
	.st0{fill:#414042;}
</style><g><path class="st0" d="M460.1,252.8H123.7c-6.9,0-12.5,5.6-12.5,12.5s5.6,12.5,12.5,12.5h336.4c6.9,0,12.5-5.6,12.5-12.5   S467,252.8,460.1,252.8z"/><path class="st0" d="M460.1,322.8H123.7c-6.9,0-12.5,5.6-12.5,12.5s5.6,12.5,12.5,12.5h336.4c6.9,0,12.5-5.6,12.5-12.5   S467,322.8,460.1,322.8z"/><path class="st0" d="M460.1,392.8H123.7c-6.9,0-12.5,5.6-12.5,12.5s5.6,12.5,12.5,12.5h336.4c6.9,0,12.5-5.6,12.5-12.5   S467,392.8,460.1,392.8z"/><path class="st0" d="M326.2,467.8H123.7c-6.9,0-12.5,5.6-12.5,12.5s5.6,12.5,12.5,12.5h202.5c6.9,0,12.5-5.6,12.5-12.5   S333.1,467.8,326.2,467.8z"/><path class="st0" d="M596.8,234.9c-21.7,0-39.3,17.7-39.3,39.3s17.7,39.3,39.3,39.3s39.3-17.7,39.3-39.3S618.5,234.9,596.8,234.9z    M596.8,288.6c-7.9,0-14.3-6.4-14.3-14.3s6.4-14.3,14.3-14.3s14.3,6.4,14.3,14.3S604.8,288.6,596.8,288.6z"/><path class="st0" d="M596.8,335.7c-21.7,0-39.3,17.7-39.3,39.3s17.7,39.3,39.3,39.3s39.3-17.7,39.3-39.3S618.5,335.7,596.8,335.7z    M596.8,389.3c-7.9,0-14.3-6.4-14.3-14.3s6.4-14.3,14.3-14.3s14.3,6.4,14.3,14.3S604.8,389.3,596.8,389.3z"/><path class="st0" d="M685,175.3h-26.3L522,76.2c-5.6-4.1-13.4-2.8-17.5,2.8c-4.1,5.6-2.8,13.4,2.8,17.5l108.8,78.9H65   c-6.9,0-12.5,5.6-12.5,12.5v370c0,6.9,5.6,12.5,12.5,12.5h620c6.9,0,12.5-5.6,12.5-12.5v-370C697.5,180.9,691.9,175.3,685,175.3z    M672.5,545.3h-595v-345h577.1c0,0,0,0,0,0c0,0,0,0,0,0h17.8V545.3z"/></g></svg>
